<mxfile host="app.diagrams.net" modified="2022-10-13T07:25:32.900Z" agent="5.0 (X11; Linux x86_64) AppleWebKit/537.36 (KHTML, like Gecko) Chrome/83.0.4103.116 Safari/537.36" etag="CuZOKqpmlUNdUOJDYN9M" version="20.4.0" type="github">
  <diagram id="tti_ZhQh_s990TyHJGqt" name="第 1 页">
    <mxGraphModel dx="1357" dy="777" grid="1" gridSize="10" guides="1" tooltips="1" connect="1" arrows="1" fold="1" page="1" pageScale="1" pageWidth="4681" pageHeight="3300" math="0" shadow="0">
      <root>
        <mxCell id="0" />
        <mxCell id="1" parent="0" />
        <mxCell id="wZFN2r-Hda0BYNomyeBZ-6" style="edgeStyle=orthogonalEdgeStyle;rounded=0;orthogonalLoop=1;jettySize=auto;html=1;exitX=0.5;exitY=1;exitDx=0;exitDy=0;fontSize=14;" edge="1" parent="1" source="wZFN2r-Hda0BYNomyeBZ-2" target="wZFN2r-Hda0BYNomyeBZ-3">
          <mxGeometry relative="1" as="geometry" />
        </mxCell>
        <mxCell id="wZFN2r-Hda0BYNomyeBZ-2" value="&lt;h1 style=&quot;text-align: start;&quot; class=&quot;with-breadcrumbs&quot;&gt;&lt;font style=&quot;font-size: 14px; font-weight: normal;&quot;&gt;dwconv规模性能较差&lt;/font&gt;&lt;/h1&gt;" style="rounded=1;whiteSpace=wrap;html=1;" vertex="1" parent="1">
          <mxGeometry x="340" y="210" width="180" height="30" as="geometry" />
        </mxCell>
        <mxCell id="wZFN2r-Hda0BYNomyeBZ-7" style="edgeStyle=orthogonalEdgeStyle;rounded=0;orthogonalLoop=1;jettySize=auto;html=1;exitX=0.5;exitY=1;exitDx=0;exitDy=0;entryX=0.5;entryY=0;entryDx=0;entryDy=0;fontSize=14;" edge="1" parent="1" source="wZFN2r-Hda0BYNomyeBZ-3" target="wZFN2r-Hda0BYNomyeBZ-4">
          <mxGeometry relative="1" as="geometry" />
        </mxCell>
        <mxCell id="wZFN2r-Hda0BYNomyeBZ-3" value="问题复现" style="rounded=0;whiteSpace=wrap;html=1;fontSize=14;" vertex="1" parent="1">
          <mxGeometry x="380" y="300" width="100" height="30" as="geometry" />
        </mxCell>
        <mxCell id="wZFN2r-Hda0BYNomyeBZ-11" style="edgeStyle=orthogonalEdgeStyle;rounded=0;orthogonalLoop=1;jettySize=auto;html=1;exitX=1;exitY=0.5;exitDx=0;exitDy=0;entryX=0.5;entryY=1;entryDx=0;entryDy=0;fontSize=14;" edge="1" parent="1" source="wZFN2r-Hda0BYNomyeBZ-4" target="wZFN2r-Hda0BYNomyeBZ-10">
          <mxGeometry relative="1" as="geometry" />
        </mxCell>
        <mxCell id="wZFN2r-Hda0BYNomyeBZ-16" value="N" style="edgeLabel;html=1;align=center;verticalAlign=middle;resizable=0;points=[];fontSize=14;" vertex="1" connectable="0" parent="wZFN2r-Hda0BYNomyeBZ-11">
          <mxGeometry x="-0.63" relative="1" as="geometry">
            <mxPoint as="offset" />
          </mxGeometry>
        </mxCell>
        <mxCell id="wZFN2r-Hda0BYNomyeBZ-17" style="edgeStyle=orthogonalEdgeStyle;rounded=0;orthogonalLoop=1;jettySize=auto;html=1;exitX=0.5;exitY=1;exitDx=0;exitDy=0;fontSize=14;" edge="1" parent="1" source="wZFN2r-Hda0BYNomyeBZ-4" target="wZFN2r-Hda0BYNomyeBZ-15">
          <mxGeometry relative="1" as="geometry" />
        </mxCell>
        <mxCell id="wZFN2r-Hda0BYNomyeBZ-20" value="Y" style="edgeLabel;html=1;align=center;verticalAlign=middle;resizable=0;points=[];fontSize=14;" vertex="1" connectable="0" parent="wZFN2r-Hda0BYNomyeBZ-17">
          <mxGeometry x="-0.2069" y="3" relative="1" as="geometry">
            <mxPoint as="offset" />
          </mxGeometry>
        </mxCell>
        <mxCell id="wZFN2r-Hda0BYNomyeBZ-4" value="复现？" style="rhombus;whiteSpace=wrap;html=1;fontSize=14;" vertex="1" parent="1">
          <mxGeometry x="375" y="370" width="110" height="30" as="geometry" />
        </mxCell>
        <mxCell id="wZFN2r-Hda0BYNomyeBZ-12" style="edgeStyle=orthogonalEdgeStyle;rounded=0;orthogonalLoop=1;jettySize=auto;html=1;exitX=0.5;exitY=0;exitDx=0;exitDy=0;entryX=0.5;entryY=0;entryDx=0;entryDy=0;fontSize=14;" edge="1" parent="1" source="wZFN2r-Hda0BYNomyeBZ-10" target="wZFN2r-Hda0BYNomyeBZ-3">
          <mxGeometry relative="1" as="geometry" />
        </mxCell>
        <mxCell id="wZFN2r-Hda0BYNomyeBZ-10" value="确认复现条件" style="rounded=0;whiteSpace=wrap;html=1;fontSize=14;" vertex="1" parent="1">
          <mxGeometry x="560" y="300" width="140" height="30" as="geometry" />
        </mxCell>
        <mxCell id="wZFN2r-Hda0BYNomyeBZ-13" value="" style="shape=curlyBracket;whiteSpace=wrap;html=1;rounded=1;fontSize=14;" vertex="1" parent="1">
          <mxGeometry x="710" y="255" width="20" height="120" as="geometry" />
        </mxCell>
        <mxCell id="wZFN2r-Hda0BYNomyeBZ-14" value="&lt;ul&gt;&lt;li&gt;&lt;span style=&quot;background-color: initial;&quot;&gt;硬件平台MLU270/MLU220&lt;/span&gt;&lt;/li&gt;&lt;li&gt;Caffe branch&lt;/li&gt;&lt;li&gt;CNML branch&lt;/li&gt;&lt;li&gt;BatchSize&lt;/li&gt;&lt;li&gt;CoreNumber&lt;/li&gt;&lt;/ul&gt;" style="text;strokeColor=#666666;fillColor=#f5f5f5;html=1;whiteSpace=wrap;verticalAlign=middle;overflow=hidden;fontSize=14;fontColor=#333333;" vertex="1" parent="1">
          <mxGeometry x="740" y="260" width="250" height="110" as="geometry" />
        </mxCell>
        <mxCell id="wZFN2r-Hda0BYNomyeBZ-15" value="确认算子逻辑" style="rounded=0;whiteSpace=wrap;html=1;fontSize=14;" vertex="1" parent="1">
          <mxGeometry x="365" y="460" width="130" height="30" as="geometry" />
        </mxCell>
        <mxCell id="wZFN2r-Hda0BYNomyeBZ-22" value="Caffe r5.3-s&lt;br&gt;CNML r5.3-s&lt;br&gt;MLU220 1batch4core &lt;br&gt;hardware time: 28ms" style="shape=callout;whiteSpace=wrap;html=1;perimeter=calloutPerimeter;fontSize=14;position2=0;base=30;size=30;position=0.1;" vertex="1" parent="1">
          <mxGeometry x="990" y="175" width="200" height="100" as="geometry" />
        </mxCell>
        <mxCell id="wZFN2r-Hda0BYNomyeBZ-36" value="&lt;h1 style=&quot;font-size: 15px;&quot;&gt;&lt;font style=&quot;font-size: 15px;&quot;&gt;Caffe&lt;/font&gt;&lt;/h1&gt;&lt;p style=&quot;font-size: 12px;&quot;&gt;&lt;font style=&quot;font-size: 12px;&quot;&gt;&lt;code style=&quot;&quot;&gt;&lt;font style=&quot;font-size: 12px;&quot;&gt;&lt;a href=&quot;http://gitlab.software.cambricon.com/neuware/caffe/-/blob/master/src/caffe/layers/mlu_conv_layer.cpp&quot;&gt;caffe/src/caffe/layers/mlu_conv_layer.cpp&lt;/a&gt;:&lt;/font&gt;&lt;/code&gt;&lt;/font&gt;&lt;/p&gt;&lt;p style=&quot;font-size: 12px;&quot;&gt;&lt;span style=&quot;background-color: initial;&quot;&gt;cnmlCreateConvDepthwiseOpParam_V2&lt;/span&gt;&lt;/p&gt;&lt;p style=&quot;font-size: 12px;&quot;&gt;&lt;code style=&quot;&quot;&gt;&lt;font style=&quot;font-size: 12px;&quot;&gt;cnmlCreateConvDepthwiseOp&lt;br&gt;&lt;/font&gt;&lt;/code&gt;&lt;/p&gt;&lt;p style=&quot;font-size: 12px;&quot;&gt;&lt;code style=&quot;&quot;&gt;&lt;font style=&quot;font-size: 12px;&quot;&gt;&lt;code&gt;cnmlCompileBaseOp&lt;/code&gt;&lt;br&gt;&lt;/font&gt;&lt;/code&gt;&lt;/p&gt;&lt;p style=&quot;font-size: 12px;&quot;&gt;&lt;code style=&quot;&quot;&gt;&lt;font style=&quot;font-size: 12px;&quot;&gt;&lt;code style=&quot;&quot;&gt;&lt;code style=&quot;&quot;&gt;&lt;font style=&quot;font-size: 12px;&quot;&gt;cnmlComputeConvDepthwiseOpForward_V3&lt;/font&gt;&lt;/code&gt;&lt;br&gt;&lt;/code&gt;&lt;/font&gt;&lt;/code&gt;&lt;/p&gt;" style="text;html=1;strokeColor=#10739e;fillColor=#b1ddf0;spacing=5;spacingTop=-20;whiteSpace=wrap;overflow=hidden;rounded=0;fontSize=14;" vertex="1" parent="1">
          <mxGeometry x="555" y="437" width="330" height="160" as="geometry" />
        </mxCell>
        <mxCell id="wZFN2r-Hda0BYNomyeBZ-37" value="&lt;h1 style=&quot;font-size: 15px;&quot;&gt;SOPA&lt;/h1&gt;&lt;h1 style=&quot;font-size: 15px;&quot;&gt;&lt;span style=&quot;font-family: monospace; font-size: 12px; background-color: initial; font-weight: normal;&quot;&gt;sopa::MLU::ConvDepthwiseOp::create&lt;/span&gt;&lt;br&gt;&lt;/h1&gt;&lt;p style=&quot;font-size: 12px;&quot;&gt;&lt;font face=&quot;monospace&quot;&gt;sopa::MLU::createFusionOp&lt;/font&gt;&lt;/p&gt;&lt;p style=&quot;font-size: 12px;&quot;&gt;&lt;font face=&quot;monospace&quot;&gt;sopa::MLU::ConvDepthwiseBaseOp::create&lt;/font&gt;&lt;/p&gt;" style="text;html=1;strokeColor=#10739e;fillColor=#b1ddf0;spacing=5;spacingTop=-20;whiteSpace=wrap;overflow=hidden;rounded=0;fontSize=14;" vertex="1" parent="1">
          <mxGeometry x="950" y="443" width="340" height="110" as="geometry" />
        </mxCell>
        <mxCell id="wZFN2r-Hda0BYNomyeBZ-39" value="&lt;h1 style=&quot;font-size: 15px;&quot;&gt;NGPF&lt;/h1&gt;&lt;h1 style=&quot;font-size: 15px;&quot;&gt;&lt;span style=&quot;font-family: monospace; font-size: 12px; background-color: initial; font-weight: normal;&quot;&gt;sopa::MLU::ConvDepthwiseOp::create&lt;/span&gt;&lt;br&gt;&lt;/h1&gt;&lt;p style=&quot;font-size: 12px;&quot;&gt;LIB_CONV_DEPTHWISE_LAYER&lt;/p&gt;&lt;p style=&quot;font-size: 12px;&quot;&gt;DepthwiseConvDsl&lt;/p&gt;&lt;p style=&quot;font-size: 12px;&quot;&gt;&lt;br&gt;&lt;/p&gt;&lt;p style=&quot;font-size: 12px;&quot;&gt;&lt;br&gt;&lt;/p&gt;&lt;p style=&quot;font-size: 12px;&quot;&gt;&lt;br&gt;&lt;/p&gt;" style="text;html=1;strokeColor=#10739e;fillColor=#b1ddf0;spacing=5;spacingTop=-20;whiteSpace=wrap;overflow=hidden;rounded=0;fontSize=14;" vertex="1" parent="1">
          <mxGeometry x="950" y="597" width="340" height="190" as="geometry" />
        </mxCell>
        <mxCell id="wZFN2r-Hda0BYNomyeBZ-40" value="&lt;ul style=&quot;font-size: 13px;&quot;&gt;&lt;li style=&quot;&quot;&gt;load filter&lt;/li&gt;&lt;li style=&quot;&quot;&gt;load input&lt;/li&gt;&lt;li style=&quot;&quot;&gt;mult filter&lt;/li&gt;&lt;li style=&quot;&quot;&gt;sumpool&lt;/li&gt;&lt;li style=&quot;&quot;&gt;store output&lt;/li&gt;&lt;/ul&gt;" style="text;strokeColor=none;fillColor=none;html=1;whiteSpace=wrap;verticalAlign=middle;overflow=hidden;fontSize=11;" vertex="1" parent="1">
          <mxGeometry x="960" y="690" width="180" height="90" as="geometry" />
        </mxCell>
        <mxCell id="wZFN2r-Hda0BYNomyeBZ-43" value="" style="shape=link;html=1;rounded=0;fontSize=13;exitX=1;exitY=0.25;exitDx=0;exitDy=0;entryX=-0.006;entryY=0.194;entryDx=0;entryDy=0;entryPerimeter=0;" edge="1" parent="1" source="wZFN2r-Hda0BYNomyeBZ-15" target="wZFN2r-Hda0BYNomyeBZ-36">
          <mxGeometry width="100" relative="1" as="geometry">
            <mxPoint x="380" y="580" as="sourcePoint" />
            <mxPoint x="480" y="580" as="targetPoint" />
          </mxGeometry>
        </mxCell>
        <mxCell id="wZFN2r-Hda0BYNomyeBZ-44" value="" style="shape=link;html=1;rounded=0;fontSize=13;exitX=0.997;exitY=0.206;exitDx=0;exitDy=0;exitPerimeter=0;entryX=0;entryY=0.25;entryDx=0;entryDy=0;" edge="1" parent="1" source="wZFN2r-Hda0BYNomyeBZ-36" target="wZFN2r-Hda0BYNomyeBZ-37">
          <mxGeometry width="100" relative="1" as="geometry">
            <mxPoint x="710" y="680" as="sourcePoint" />
            <mxPoint x="810" y="680" as="targetPoint" />
          </mxGeometry>
        </mxCell>
        <mxCell id="wZFN2r-Hda0BYNomyeBZ-45" value="" style="shape=link;html=1;rounded=0;fontSize=13;entryX=0.25;entryY=0;entryDx=0;entryDy=0;exitX=0.25;exitY=1;exitDx=0;exitDy=0;" edge="1" parent="1" source="wZFN2r-Hda0BYNomyeBZ-37" target="wZFN2r-Hda0BYNomyeBZ-39">
          <mxGeometry width="100" relative="1" as="geometry">
            <mxPoint x="580" y="710" as="sourcePoint" />
            <mxPoint x="680" y="710" as="targetPoint" />
          </mxGeometry>
        </mxCell>
        <mxCell id="wZFN2r-Hda0BYNomyeBZ-46" value="" style="rounded=0;whiteSpace=wrap;html=1;fontSize=13;fillColor=none;" vertex="1" parent="1">
          <mxGeometry x="540" y="430" width="760" height="370" as="geometry" />
        </mxCell>
      </root>
    </mxGraphModel>
  </diagram>
</mxfile>
